HIERARCHY
ROOT Hips
{
	OFFSET 0.000000 0.000000 0.000000
	CHANNELS 6 Xposition Yposition Zposition Zrotation Yrotation Xrotation 
	JOINT Spine
	{
		OFFSET 0.000000 10.181600 0.131500
		CHANNELS 3 Zrotation Yrotation Xrotation
		JOINT Spine1
		{
			OFFSET 0.000000 10.083500 -1.000800
			CHANNELS 3 Zrotation Yrotation Xrotation
			JOINT Spine2
			{
				OFFSET 0.000000 9.100000 -1.373400
				CHANNELS 3 Zrotation Yrotation Xrotation
				JOINT Neck
				{
					OFFSET 0.000000 16.671700 -2.516200
					CHANNELS 3 Zrotation Yrotation Xrotation
					JOINT Head
					{
						OFFSET -0.000000 9.617900 1.685000
						CHANNELS 3 Zrotation Yrotation Xrotation
						JOINT HeadTop_End
						{
							OFFSET -0.000000 17.815200 2.585000
							CHANNELS 3 Zrotation Yrotation Xrotation
							End Site
							{
								OFFSET 0.000000 0.000000 0.000000
							}
						}
						JOINT LeftEye
						{
							OFFSET 3.067600 6.409500 9.283600
							CHANNELS 3 Zrotation Yrotation Xrotation
							End Site
							{
								OFFSET 0.000000 0.000000 0.000000
							}
						}
						JOINT RightEye
						{
							OFFSET -3.067600 6.409500 9.283500
							CHANNELS 3 Zrotation Yrotation Xrotation
							End Site
							{
								OFFSET 0.000000 0.000000 0.000000
							}
						}
					}
				}
				JOINT LeftShoulder
				{
					OFFSET 4.570400 10.946000 -2.628000
					CHANNELS 3 Zrotation Yrotation Xrotation
					JOINT LeftArm
					{
						OFFSET 10.592400 -0.524600 -2.232100
						CHANNELS 3 Zrotation Yrotation Xrotation
						JOINT LeftForeArm
						{
							OFFSET 27.841500 -0.000100 0.000000
							CHANNELS 3 Zrotation Yrotation Xrotation
							JOINT LeftHand
							{
								OFFSET 28.328800 -0.000000 0.000000
								CHANNELS 3 Zrotation Yrotation Xrotation
								JOINT LeftHandThumb1
								{
									OFFSET 2.466100 -1.575000 2.682400
									CHANNELS 3 Zrotation Yrotation Xrotation
									JOINT LeftHandThumb2
									{
										OFFSET 3.229800 -1.864700 1.864700
										CHANNELS 3 Zrotation Yrotation Xrotation
										JOINT LeftHandThumb3
										{
											OFFSET 2.652600 -1.531500 1.531500
											CHANNELS 3 Zrotation Yrotation Xrotation
											JOINT LeftHandThumb4
											{
												OFFSET 1.954600 -1.128500 1.128500
												CHANNELS 3 Zrotation Yrotation Xrotation
												End Site
												{
													OFFSET 0.000000 0.000000 0.000000
												}
											}
										}
									}
								}
								JOINT LeftHandIndex1
								{
									OFFSET 9.109300 -0.517100 2.260100
									CHANNELS 3 Zrotation Yrotation Xrotation
									JOINT LeftHandIndex2
									{
										OFFSET 3.676400 -0.000000 0.000000
										CHANNELS 3 Zrotation Yrotation Xrotation
										JOINT LeftHandIndex3
										{
											OFFSET 2.883100 0.000000 -0.000000
											CHANNELS 3 Zrotation Yrotation Xrotation
											JOINT LeftHandIndex4
											{
												OFFSET 2.392700 0.000000 0.000000
												CHANNELS 3 Zrotation Yrotation Xrotation
												End Site
												{
													OFFSET 0.000000 0.000000 0.000000
												}
											}
										}
									}
								}
								JOINT LeftHandMiddle1
								{
									OFFSET 9.533400 -0.000000 0.000000
									CHANNELS 3 Zrotation Yrotation Xrotation
									JOINT LeftHandMiddle2
									{
										OFFSET 3.698200 0.000000 0.000000
										CHANNELS 3 Zrotation Yrotation Xrotation
										JOINT LeftHandMiddle3
										{
											OFFSET 2.950900 -0.000000 0.000000
											CHANNELS 3 Zrotation Yrotation Xrotation
											JOINT LeftHandMiddle4
											{
												OFFSET 2.833900 -0.000000 -0.000000
												CHANNELS 3 Zrotation Yrotation Xrotation
												End Site
												{
													OFFSET 0.000000 0.000000 0.000000
												}
											}
										}
									}
								}
								JOINT LeftHandRing1
								{
									OFFSET 9.104500 -0.043900 -1.865100
									CHANNELS 3 Zrotation Yrotation Xrotation
									JOINT LeftHandRing2
									{
										OFFSET 3.154000 -0.000000 0.000000
										CHANNELS 3 Zrotation Yrotation Xrotation
										JOINT LeftHandRing3
										{
											OFFSET 2.937700 -0.000000 -0.000000
											CHANNELS 3 Zrotation Yrotation Xrotation
											JOINT LeftHandRing4
											{
												OFFSET 2.647500 -0.000000 0.000000
												CHANNELS 3 Zrotation Yrotation Xrotation
												End Site
												{
													OFFSET 0.000000 0.000000 0.000000
												}
											}
										}
									}
								}
								JOINT LeftHandPinky1
								{
									OFFSET 8.077800 -0.488700 -3.806100
									CHANNELS 3 Zrotation Yrotation Xrotation
									JOINT LeftHandPinky2
									{
										OFFSET 3.600000 -0.000000 -0.000000
										CHANNELS 3 Zrotation Yrotation Xrotation
										JOINT LeftHandPinky3
										{
											OFFSET 2.114200 0.000000 -0.000000
											CHANNELS 3 Zrotation Yrotation Xrotation
											JOINT LeftHandPinky4
											{
												OFFSET 1.975700 0.000000 -0.000000
												CHANNELS 3 Zrotation Yrotation Xrotation
												End Site
												{
													OFFSET 0.000000 0.000000 0.000000
												}
											}
										}
									}
								}
							}
						}
					}
				}
				JOINT RightShoulder
				{
					OFFSET -4.570000 10.946200 -2.628000
					CHANNELS 3 Zrotation Yrotation Xrotation
					JOINT RightArm
					{
						OFFSET -10.592800 -0.524800 -2.232100
						CHANNELS 3 Zrotation Yrotation Xrotation
						JOINT RightForeArm
						{
							OFFSET -27.841500 -0.000000 0.000000
							CHANNELS 3 Zrotation Yrotation Xrotation
							JOINT RightHand
							{
								OFFSET -28.328800 -0.000000 0.000100
								CHANNELS 3 Zrotation Yrotation Xrotation
								JOINT RightHandPinky1
								{
									OFFSET -8.076700 -0.488500 -3.806000
									CHANNELS 3 Zrotation Yrotation Xrotation
									JOINT RightHandPinky2
									{
										OFFSET -3.600000 0.000000 0.000100
										CHANNELS 3 Zrotation Yrotation Xrotation
										JOINT RightHandPinky3
										{
											OFFSET -2.114200 0.000000 0.000000
											CHANNELS 3 Zrotation Yrotation Xrotation
											JOINT RightHandPinky4
											{
												OFFSET -1.975700 -0.000000 -0.000000
												CHANNELS 3 Zrotation Yrotation Xrotation
												End Site
												{
													OFFSET 0.000000 0.000000 0.000000
												}
											}
										}
									}
								}
								JOINT RightHandRing1
								{
									OFFSET -9.103600 -0.043900 -1.865100
									CHANNELS 3 Zrotation Yrotation Xrotation
									JOINT RightHandRing2
									{
										OFFSET -3.154000 0.000000 0.000000
										CHANNELS 3 Zrotation Yrotation Xrotation
										JOINT RightHandRing3
										{
											OFFSET -2.937700 -0.000000 -0.000000
											CHANNELS 3 Zrotation Yrotation Xrotation
											JOINT RightHandRing4
											{
												OFFSET -2.647500 0.000000 -0.000000
												CHANNELS 3 Zrotation Yrotation Xrotation
												End Site
												{
													OFFSET 0.000000 0.000000 0.000000
												}
											}
										}
									}
								}
								JOINT RightHandMiddle1
								{
									OFFSET -9.532500 -0.000000 0.000000
									CHANNELS 3 Zrotation Yrotation Xrotation
									JOINT RightHandMiddle2
									{
										OFFSET -3.698200 0.000000 -0.000000
										CHANNELS 3 Zrotation Yrotation Xrotation
										JOINT RightHandMiddle3
										{
											OFFSET -2.950900 -0.000000 -0.000000
											CHANNELS 3 Zrotation Yrotation Xrotation
											JOINT RightHandMiddle4
											{
												OFFSET -2.833900 0.000000 0.000100
												CHANNELS 3 Zrotation Yrotation Xrotation
												End Site
												{
													OFFSET 0.000000 0.000000 0.000000
												}
											}
										}
									}
								}
								JOINT RightHandIndex1
								{
									OFFSET -9.108300 -0.516800 2.260100
									CHANNELS 3 Zrotation Yrotation Xrotation
									JOINT RightHandIndex2
									{
										OFFSET -3.676400 0.000000 0.000000
										CHANNELS 3 Zrotation Yrotation Xrotation
										JOINT RightHandIndex3
										{
											OFFSET -2.883100 -0.000000 0.000000
											CHANNELS 3 Zrotation Yrotation Xrotation
											JOINT RightHandIndex4
											{
												OFFSET -2.392700 0.000000 0.000000
												CHANNELS 3 Zrotation Yrotation Xrotation
												End Site
												{
													OFFSET 0.000000 0.000000 0.000000
												}
											}
										}
									}
								}
								JOINT RightHandThumb1
								{
									OFFSET -2.464800 -1.572700 2.682600
									CHANNELS 3 Zrotation Yrotation Xrotation
									JOINT RightHandThumb2
									{
										OFFSET -3.229800 -1.864700 1.864700
										CHANNELS 3 Zrotation Yrotation Xrotation
										JOINT RightHandThumb3
										{
											OFFSET -2.652600 -1.531400 1.531400
											CHANNELS 3 Zrotation Yrotation Xrotation
											JOINT RightHandThumb4
											{
												OFFSET -1.954600 -1.128500 1.128500
												CHANNELS 3 Zrotation Yrotation Xrotation
												End Site
												{
													OFFSET 0.000000 0.000000 0.000000
												}
											}
										}
									}
								}
							}
						}
					}
				}
			}
		}
	}
	JOINT LeftUpLeg
	{
		OFFSET 8.207800 -6.751700 -1.599600
		CHANNELS 3 Zrotation Yrotation Xrotation
		JOINT LeftLeg
		{
			OFFSET -0.000000 -44.370500 0.284600
			CHANNELS 3 Zrotation Yrotation Xrotation
			JOINT LeftFoot
			{
				OFFSET 0.000000 -44.427900 -2.982200
				CHANNELS 3 Zrotation Yrotation Xrotation
				JOINT LeftToeBase
				{
					OFFSET -0.000000 -8.728700 10.710600
					CHANNELS 3 Zrotation Yrotation Xrotation
					JOINT LeftToe_End
					{
						OFFSET -0.000000 -0.000700 9.278100
						CHANNELS 3 Zrotation Yrotation Xrotation
						End Site
						{
							OFFSET 0.000000 0.000000 0.000000
						}
					}
				}
			}
		}
	}
	JOINT RightUpLeg
	{
		OFFSET -8.207800 -6.751700 -1.599600
		CHANNELS 3 Zrotation Yrotation Xrotation
		JOINT RightLeg
		{
			OFFSET 0.000000 -44.370500 0.286200
			CHANNELS 3 Zrotation Yrotation Xrotation
			JOINT RightFoot
			{
				OFFSET 0.000000 -44.427700 -2.983800
				CHANNELS 3 Zrotation Yrotation Xrotation
				JOINT RightToeBase
				{
					OFFSET -0.000000 -8.728700 10.710600
					CHANNELS 3 Zrotation Yrotation Xrotation
					JOINT RightToe_End
					{
						OFFSET -0.000000 -0.000700 9.278100
						CHANNELS 3 Zrotation Yrotation Xrotation
						End Site
						{
							OFFSET 0.000000 0.000000 0.000000
						}
					}
				}
			}
		}
	}
}
MOTION
Frames: 4
Frame Time: 0.033333
0.982208 90.213692 0.985010 -0.960037 7.800430 -5.118492 -1.056513 -3.793992 3.589981 0.056209 -7.820437 7.798926 0.080275 -7.862041 7.743650 -0.345055 2.111598 -3.079103 0.480318 10.064939 -29.466019 0.000000 0.000000 0.000000 0.000000 0.000000 0.000000 0.000000 0.000000 0.000000 -6.226223 6.659014 -0.536765 -66.782677 -53.459057 57.671349 -0.000216 -59.707298 0.000001 23.326714 0.588533 -15.159072 9.117486 23.511768 1.536794 1.308315 7.899608 4.090980 2.526892 1.610829 -0.504233 0.000000 0.000000 0.000000 -19.868235 2.339716 -0.409854 -14.897541 1.770363 -0.231503 -7.446984 0.892708 -0.058078 0.000000 0.000000 0.000000 -19.852222 2.337909 -0.409194 -14.913542 1.772212 -0.231972 -7.446982 0.892698 -0.058097 0.000000 0.000000 0.000000 -19.868235 2.339716 -0.409854 -14.897541 1.770363 -0.231503 -7.446984 0.892708 -0.058078 0.000000 0.000000 0.000000 -19.386265 6.397657 -0.373102 -15.409600 -2.143308 0.828193 -7.446983 0.892709 -0.058093 0.000000 0.000000 0.000000 11.603724 1.570732 1.454679 64.131531 13.578610 41.749489 0.000029 14.826380 0.000008 -14.017669 -0.637728 -15.427385 19.865696 -2.363819 -0.413725 14.895518 -1.785839 -0.233263 7.445980 -0.901290 -0.058644 0.000000 0.000000 0.000000 19.865683 -2.362228 -0.413725 14.895532 -1.787377 -0.233672 7.445980 -0.901290 -0.058644 0.000000 0.000000 0.000000 19.865683 -2.362228 -0.413725 14.895532 -1.787377 -0.233672 7.445981 -0.903312 -0.058645 0.000000 0.000000 0.000000 19.865683 -2.362228 -0.413725 14.895532 -1.787377 -0.233672 7.445980 -0.901290 -0.058644 0.000000 0.000000 0.000000 -9.602036 -23.424009 1.405064 -0.935648 -8.607982 4.734343 -2.102377 0.077458 -1.273224 0.000000 0.000000 0.000000 10.163011 5.129512 2.221594 2.886973 2.072907 54.321705 0.304403 -0.320475 -18.694174 -0.000003 0.000005 -36.613152 0.000000 0.000000 0.000000 -1.923016 -12.803705 -40.704063 7.528366 6.054481 48.676731 0.839075 0.622594 -2.285389 0.000001 0.000004 -2.280007 0.000000 0.000000 0.000000 
0.595357 90.255432 4.645893 -0.931451 7.099430 -5.329068 -0.643152 -3.738479 3.746575 0.278499 -7.673109 8.119863 0.300531 -7.716046 8.065784 -0.455494 2.126449 -3.102333 -0.827692 9.899932 -31.257874 0.000000 0.000000 0.000000 0.000000 0.000000 0.000000 0.000000 0.000000 0.000000 -6.125793 6.523741 -0.498861 -67.621758 -52.627529 58.488243 -0.000210 -59.349644 0.000002 23.782618 0.596811 -15.373991 9.117486 23.511768 1.536794 1.308315 7.899608 4.090980 2.526892 1.610829 -0.504233 0.000000 0.000000 0.000000 -19.868235 2.339716 -0.409854 -14.897541 1.770363 -0.231503 -7.446984 0.892708 -0.058078 0.000000 0.000000 0.000000 -19.852222 2.337909 -0.409194 -14.913542 1.772212 -0.231972 -7.446982 0.892698 -0.058097 0.000000 0.000000 0.000000 -19.868235 2.339716 -0.409854 -14.897541 1.770363 -0.231503 -7.446984 0.892708 -0.058078 0.000000 0.000000 0.000000 -19.386265 6.397657 -0.373102 -15.409600 -2.143308 0.828193 -7.446983 0.892709 -0.058093 0.000000 0.000000 0.000000 11.605294 2.060017 1.588895 63.533310 14.939925 42.687794 -0.000035 14.241281 -0.000012 -14.098886 -0.651059 -15.509691 19.865696 -2.363819 -0.413725 14.895518 -1.785839 -0.233263 7.445980 -0.901290 -0.058644 0.000000 0.000000 0.000000 19.865683 -2.362228 -0.413725 14.895532 -1.787377 -0.233672 7.445980 -0.901290 -0.058644 0.000000 0.000000 0.000000 19.865683 -2.362228 -0.413725 14.895532 -1.787377 -0.233672 7.445981 -0.903312 -0.058645 0.000000 0.000000 0.000000 19.865683 -2.362228 -0.413725 14.895532 -1.787377 -0.233672 7.445980 -0.901290 -0.058644 0.000000 0.000000 0.000000 -9.602036 -23.424009 1.405064 -0.935648 -8.607982 4.734343 -2.102377 0.077458 -1.273224 0.000000 0.000000 0.000000 11.434245 6.406054 2.637343 1.420215 1.027460 55.254227 2.915629 0.161714 -5.188120 0.000003 0.000003 -51.164078 0.000000 0.000000 0.000000 -1.948697 -11.963902 -39.659924 7.673026 5.391337 51.883614 0.096070 0.756423 -6.317500 -0.000001 0.000006 -1.161593 0.000000 0.000000 0.000000 
0.214783 90.204269 7.891547 -0.907299 6.317400 -5.618241 -0.071495 -3.751485 3.943999 0.506110 -7.513537 8.415755 0.523945 -7.550215 8.371249 -0.492991 2.016601 -3.031201 -2.266177 9.049088 -33.573299 0.000000 0.000000 0.000000 0.000000 0.000000 0.000000 0.000000 0.000000 0.000000 -6.077179 6.456291 -0.479902 -68.265594 -51.156204 58.944592 -0.000213 -58.420376 -0.000006 24.190441 0.605508 -15.754293 9.117486 23.511768 1.536794 1.308315 7.899608 4.090980 2.526892 1.610829 -0.504233 0.000000 0.000000 0.000000 -19.868235 2.339716 -0.409854 -14.897541 1.770363 -0.231503 -7.446984 0.892708 -0.058078 0.000000 0.000000 0.000000 -19.852222 2.337909 -0.409194 -14.913542 1.772212 -0.231972 -7.446982 0.892698 -0.058097 0.000000 0.000000 0.000000 -19.868235 2.339716 -0.409854 -14.897541 1.770363 -0.231503 -7.446984 0.892708 -0.058078 0.000000 0.000000 0.000000 -19.386265 6.397657 -0.373102 -15.409600 -2.143308 0.828193 -7.446983 0.892709 -0.058093 0.000000 0.000000 0.000000 11.672284 2.348027 1.674308 62.360672 16.979059 43.186390 -0.000029 13.259742 -0.000001 -13.466804 -0.632903 -15.077925 19.865696 -2.363819 -0.413725 14.895518 -1.785839 -0.233263 7.445980 -0.901290 -0.058644 0.000000 0.000000 0.000000 19.865683 -2.362228 -0.413725 14.895532 -1.787377 -0.233672 7.445980 -0.901290 -0.058644 0.000000 0.000000 0.000000 19.865683 -2.362228 -0.413725 14.895532 -1.787377 -0.233672 7.445981 -0.903312 -0.058645 0.000000 0.000000 0.000000 19.865683 -2.362228 -0.413725 14.895532 -1.787377 -0.233672 7.445980 -0.901290 -0.058644 0.000000 0.000000 0.000000 -9.602036 -23.424009 1.405064 -0.935648 -8.607982 4.734343 -2.102377 0.077458 -1.273224 0.000000 0.000000 0.000000 12.283117 7.682814 3.518534 -1.510574 -1.008322 54.302689 3.973837 -0.484939 11.461853 -1.382670 -2.573700 -65.086014 0.000000 0.000000 0.000000 -1.906329 -11.403153 -38.491089 7.139740 4.438435 54.423664 -0.672275 1.983138 -9.789194 -0.000000 -0.000000 -2.093189 0.000000 0.000000 0.000000 
-0.139154 90.160057 10.718855 -0.947739 6.188916 -5.816887 0.553292 -3.836058 4.198049 0.731120 -7.358840 8.711708 0.741932 -7.379718 8.686557 -0.412855 1.728281 -2.829017 -3.455690 7.536768 -35.790253 0.000000 0.000000 0.000000 0.000000 0.000000 0.000000 0.000000 0.000000 0.000000 -6.127192 6.382806 -0.471118 -68.731552 -49.175079 59.447235 -0.000213 -56.858814 -0.000002 24.507813 0.614149 -16.297607 9.117486 23.511768 1.536794 1.308315 7.899608 4.090980 2.526892 1.610829 -0.504233 0.000000 0.000000 0.000000 -19.868235 2.339716 -0.409854 -14.897541 1.770363 -0.231503 -7.446984 0.892708 -0.058078 0.000000 0.000000 0.000000 -19.852222 2.337909 -0.409194 -14.913542 1.772212 -0.231972 -7.446982 0.892698 -0.058097 0.000000 0.000000 0.000000 -19.868235 2.339716 -0.409854 -14.897541 1.770363 -0.231503 -7.446984 0.892708 -0.058078 0.000000 0.000000 0.000000 -19.386265 6.397657 -0.373102 -15.409600 -2.143308 0.828193 -7.446983 0.892709 -0.058093 0.000000 0.000000 0.000000 11.756355 2.408548 1.697277 60.672947 19.962645 43.335629 0.000004 11.711836 0.000000 -12.068680 -0.579839 -14.126123 19.865696 -2.363819 -0.413725 14.895518 -1.785839 -0.233263 7.445980 -0.901290 -0.058644 0.000000 0.000000 0.000000 19.865683 -2.362228 -0.413725 14.895532 -1.787377 -0.233672 7.445980 -0.901290 -0.058644 0.000000 0.000000 0.000000 19.865683 -2.362228 -0.413725 14.895532 -1.787377 -0.233672 7.445981 -0.903312 -0.058645 0.000000 0.000000 0.000000 19.865683 -2.362228 -0.413725 14.895532 -1.787377 -0.233672 7.445980 -0.901290 -0.058644 0.000000 0.000000 0.000000 -9.602036 -23.424009 1.405064 -0.935648 -8.607982 4.734343 -2.102377 0.077458 -1.273224 0.000000 0.000000 0.000000 13.297240 8.238849 3.022641 -2.519517 -1.603743 55.851795 -1.494338 0.587329 20.339813 -1.395882 -2.439391 -63.002785 0.000000 0.000000 0.000000 -1.883824 -11.148572 -37.250843 6.625781 3.733840 56.337349 -1.210380 2.698175 -12.796786 0.000001 -0.000004 -3.719437 0.000000 0.000000 0.000000 
